
<global>
amp_veltrack=0
ampeg_release=2.5
loop_mode=loop_continuous
</global>

<group>
group_label=PP
xf_cccurve=gain
xfin_hicc1=42
xfout_hicc1=85
xfout_locc1=42

<region>
hikey=G6
hivel=127
lokey=F#6
loop_end=298228
loop_start=130992
loop_xfade=49051
lovel=0
offset=10382
pitch_keycenter=G6
release_start=301778
release_xfade=12000
sample=Violins1_harmonic_PP_G5.opus
</region>

<region>
hikey=F6
hivel=127
lokey=D#6
loop_end=298228
loop_start=130992
loop_xfade=49051
lovel=0
offset=11174
pitch_keycenter=F6
release_start=299490
release_xfade=12000
sample=Violins1_harmonic_PP_F5.opus
</region>

<region>
hikey=G7
hivel=127
lokey=D7
loop_end=278434
loop_start=114198
loop_xfade=42762
lovel=0
offset=11384
pitch_keycenter=D#7
release_start=288000
release_xfade=12000
sample=Violins1_harmonic_PP_D#6.opus
</region>

<region>
hikey=C#7
hivel=127
lokey=C7
loop_end=298228
loop_start=130992
loop_xfade=49051
lovel=0
offset=13058
pitch_keycenter=C#7
release_start=302413
release_xfade=12000
sample=Violins1_harmonic_PP_C#6.opus
</region>

<region>
hikey=D6
hivel=127
lokey=C6
loop_end=298228
loop_start=130992
loop_xfade=49051
lovel=0
offset=9545
pitch_keycenter=C#6
release_start=297347
release_xfade=12000
sample=Violins1_harmonic_PP_C#5.opus
</region>

<region>
hikey=B6
hivel=127
lokey=A#6
loop_end=298228
loop_start=130992
loop_xfade=49051
lovel=0
offset=13058
pitch_keycenter=B6
release_start=305986
release_xfade=12000
sample=Violins1_harmonic_PP_B5.opus
</region>

<region>
hikey=B5
hivel=127
lokey=C5
loop_end=298228
loop_start=130992
loop_xfade=49051
lovel=0
offset=9017
pitch_keycenter=B5
release_start=293392
release_xfade=12000
sample=Violins1_harmonic_PP_B4.opus
</region>

<region>
hikey=A6
hivel=127
lokey=G#6
loop_end=298228
loop_start=130992
loop_xfade=49051
lovel=0
offset=9145
pitch_keycenter=A6
release_start=306215
release_xfade=12000
sample=Violins1_harmonic_PP_A5.opus
</region>
</group>

<group>
group_label=MF
xf_cccurve=gain
xfin_hicc1=85
xfin_locc1=42
xfout_hicc1=127
xfout_locc1=85

<region>
hikey=G6
hivel=127
lokey=F#6
loop_end=292130
loop_start=128313
loop_xfade=48048
lovel=0
offset=10066
pitch_keycenter=G6
release_start=288000
release_xfade=12000
sample=Violins1_harmonic_MF_G5.opus
</region>

<region>
hikey=G5
hivel=127
lokey=C5
loop_end=280439
loop_start=123178
loop_xfade=46125
lovel=0
pitch_keycenter=G5
release_start=288000
release_xfade=12000
sample=Violins1_harmonic_MF_G4.opus
</region>

<region>
hikey=F6
hivel=127
lokey=E6
loop_end=286389
loop_start=125791
loop_xfade=47104
lovel=0
pitch_keycenter=F6
release_start=288000
release_xfade=12000
sample=Violins1_harmonic_MF_F5.opus
</region>

<region>
hikey=G7
hivel=127
lokey=D7
loop_end=245534
loop_start=107846
loop_xfade=40384
lovel=0
pitch_keycenter=D#7
release_start=288000
release_xfade=12000
sample=Violins1_harmonic_MF_D#6.opus
</region>

<region>
hikey=D#6
hivel=127
lokey=D6
loop_end=283593
loop_start=124563
loop_xfade=46644
lovel=0
pitch_keycenter=D#6
release_start=288000
release_xfade=12000
sample=Violins1_harmonic_MF_D#5.opus
</region>

<region>
hikey=C#7
hivel=127
lokey=C7
loop_end=284512
loop_start=124967
loop_xfade=46795
lovel=0
pitch_keycenter=C#7
release_start=288000
release_xfade=12000
sample=Violins1_harmonic_MF_C#6.opus
</region>

<region>
hikey=C#6
hivel=127
lokey=C6
loop_end=287162
loop_start=126131
loop_xfade=47231
lovel=0
pitch_keycenter=C#6
release_start=288000
release_xfade=12000
sample=Violins1_harmonic_MF_C#5.opus
</region>

<region>
hikey=B6
hivel=127
lokey=A#6
loop_end=287439
loop_start=126253
loop_xfade=47276
lovel=0
pitch_keycenter=B6
release_start=288000
release_xfade=12000
sample=Violins1_harmonic_MF_B5.opus
</region>

<region>
hikey=B5
hivel=127
lokey=A#5
loop_end=287309
loop_start=126196
loop_xfade=47255
lovel=0
pitch_keycenter=B5
release_start=288000
release_xfade=12000
sample=Violins1_harmonic_MF_B4.opus
</region>

<region>
hikey=A6
hivel=127
lokey=G#6
loop_end=287262
loop_start=126175
loop_xfade=47247
lovel=0
pitch_keycenter=A6
release_start=288000
release_xfade=12000
sample=Violins1_harmonic_MF_A5.opus
</region>

<region>
hikey=A5
hivel=127
lokey=G#5
loop_end=292792
loop_start=128604
loop_xfade=48157
lovel=0
offset=13807
pitch_keycenter=A5
release_start=305054
release_xfade=12000
sample=Violins1_harmonic_MF_A4.opus
</region>
</group>

<group>
group_label=FF
xf_cccurve=gain
xfin_hicc1=127
xfin_locc1=85
xfout_hicc1=127
xfout_locc1=127

<region>
hikey=G6
hivel=127
lokey=F#6
loop_end=284953
loop_start=125161
loop_xfade=46868
lovel=0
pitch_keycenter=G6
release_start=288000
release_xfade=12000
sample=Violins1_harmonic_FF_G5.opus
</region>

<region>
hikey=G5
hivel=127
lokey=C5
loop_end=282741
loop_start=124189
loop_xfade=46504
lovel=0
pitch_keycenter=G5
release_start=288000
release_xfade=12000
sample=Violins1_harmonic_FF_G4.opus
</region>

<region>
hikey=F6
hivel=127
lokey=E6
loop_end=284071
loop_start=124773
loop_xfade=46723
lovel=0
pitch_keycenter=F6
release_start=288000
release_xfade=12000
sample=Violins1_harmonic_FF_F5.opus
</region>

<region>
hikey=G7
hivel=127
lokey=D7
loop_end=247889
loop_start=108881
loop_xfade=40772
lovel=0
pitch_keycenter=D#7
release_start=288000
release_xfade=12000
sample=Violins1_harmonic_FF_D#6.opus
</region>

<region>
hikey=D#6
hivel=127
lokey=D6
loop_end=287330
loop_start=126205
loop_xfade=47259
lovel=0
pitch_keycenter=D#6
release_start=288000
release_xfade=12000
sample=Violins1_harmonic_FF_D#5.opus
</region>

<region>
hikey=C#7
hivel=127
lokey=C7
loop_end=279585
loop_start=122803
loop_xfade=45985
lovel=0
pitch_keycenter=C#7
release_start=288000
release_xfade=12000
sample=Violins1_harmonic_FF_C#6.opus
</region>

<region>
hikey=C#6
hivel=127
lokey=C6
loop_end=293229
loop_start=128796
loop_xfade=48229
lovel=0
offset=6116
pitch_keycenter=C#6
release_start=288000
release_xfade=12000
sample=Violins1_harmonic_FF_C#5.opus
</region>

<region>
hikey=B6
hivel=127
lokey=A#6
loop_end=287907
loop_start=126458
loop_xfade=47354
lovel=0
pitch_keycenter=B6
release_start=288000
release_xfade=12000
sample=Violins1_harmonic_FF_B5.opus
</region>

<region>
hikey=B5
hivel=127
lokey=A#5
loop_end=285341
loop_start=125331
loop_xfade=46932
lovel=0
pitch_keycenter=B5
release_start=288000
release_xfade=12000
sample=Violins1_harmonic_FF_B4.opus
</region>

<region>
hikey=A6
hivel=127
lokey=G#6
loop_end=286608
loop_start=125888
loop_xfade=47140
lovel=0
pitch_keycenter=A6
release_start=288000
release_xfade=12000
sample=Violins1_harmonic_FF_A5.opus
</region>

<region>
hikey=A5
hivel=127
lokey=G#5
loop_end=283468
loop_start=124508
loop_xfade=46624
lovel=0
pitch_keycenter=A5
release_start=288000
release_xfade=12000
sample=Violins1_harmonic_FF_A4.opus
</region>
</group>